<svg width="16" height="15" viewBox="0 0 16 15" fill="none" xmlns="http://www.w3.org/2000/svg">
<g filter="url(#filter0_d)">
<path d="M14.2125 12.3516L10.1547 8.29375C10.7844 7.47969 11.125 6.48438 11.125 5.4375C11.125 4.18438 10.6359 3.00937 9.75156 2.12344C8.86719 1.2375 7.68906 0.75 6.4375 0.75C5.18594 0.75 4.00781 1.23906 3.12344 2.12344C2.2375 3.00781 1.75 4.18438 1.75 5.4375C1.75 6.68906 2.23906 7.86719 3.12344 8.75156C4.00781 9.6375 5.18438 10.125 6.4375 10.125C7.48438 10.125 8.47813 9.78438 9.29219 9.15625L13.35 13.2125C13.3619 13.2244 13.376 13.2338 13.3916 13.2403C13.4071 13.2467 13.4238 13.2501 13.4406 13.2501C13.4575 13.2501 13.4741 13.2467 13.4897 13.2403C13.5052 13.2338 13.5194 13.2244 13.5312 13.2125L14.2125 12.5328C14.2244 12.5209 14.2338 12.5068 14.2403 12.4912C14.2467 12.4757 14.2501 12.459 14.2501 12.4422C14.2501 12.4254 14.2467 12.4087 14.2403 12.3931C14.2338 12.3776 14.2244 12.3635 14.2125 12.3516ZM8.9125 7.9125C8.25 8.57344 7.37187 8.9375 6.4375 8.9375C5.50313 8.9375 4.625 8.57344 3.9625 7.9125C3.30156 7.25 2.9375 6.37187 2.9375 5.4375C2.9375 4.50313 3.30156 3.62344 3.9625 2.9625C4.625 2.30156 5.50313 1.9375 6.4375 1.9375C7.37187 1.9375 8.25156 2.3 8.9125 2.9625C9.57344 3.625 9.9375 4.50313 9.9375 5.4375C9.9375 6.37187 9.57344 7.25156 8.9125 7.9125Z" fill="#8C8C8C"/>
</g>
<defs>
<filter id="filter0_d" x="-2.25" y="0.75" width="20.5001" height="20.5001" filterUnits="userSpaceOnUse" color-interpolation-filters="sRGB">
<feFlood flood-opacity="0" result="BackgroundImageFix"/>
<feColorMatrix in="SourceAlpha" type="matrix" values="0 0 0 0 0 0 0 0 0 0 0 0 0 0 0 0 0 0 127 0"/>
<feOffset dy="4"/>
<feGaussianBlur stdDeviation="2"/>
<feColorMatrix type="matrix" values="0 0 0 0 0 0 0 0 0 0 0 0 0 0 0 0 0 0 0.25 0"/>
<feBlend mode="normal" in2="BackgroundImageFix" result="effect1_dropShadow"/>
<feBlend mode="normal" in="SourceGraphic" in2="effect1_dropShadow" result="shape"/>
</filter>
</defs>
</svg>
